<svg width="16" height="16" viewBox="0 0 16 16" fill="none" xmlns="http://www.w3.org/2000/svg">
<path d="M15.1579 6.552H12.7242C10.7284 6.552 9.10316 5.008 9.10316 3.112V0.8C9.10316 0.36 8.72421 0 8.26105 0H4.69053C2.09684 0 0 1.6 0 4.456V11.544C0 14.4 2.09684 16 4.69053 16H11.3095C13.9032 16 16 14.4 16 11.544V7.352C16 6.912 15.6211 6.552 15.1579 6.552ZM8.23579 11.024L6.55158 12.624C6.49263 12.68 6.41684 12.728 6.34105 12.752C6.26526 12.784 6.18947 12.8 6.10526 12.8C6.02105 12.8 5.94526 12.784 5.86947 12.752C5.80211 12.728 5.73474 12.68 5.68421 12.632C5.67579 12.624 5.66737 12.624 5.66737 12.616L3.98316 11.016C3.73895 10.784 3.73895 10.4 3.98316 10.168C4.22737 9.936 4.63158 9.936 4.87579 10.168L5.47368 10.752V7.4C5.47368 7.072 5.76 6.8 6.10526 6.8C6.45053 6.8 6.73684 7.072 6.73684 7.4V10.752L7.34316 10.176C7.58737 9.944 7.99158 9.944 8.23579 10.176C8.48 10.408 8.48 10.792 8.23579 11.024Z" fill="#338C90"/>
<path d="M12.5658 5.44858C13.3658 5.45658 14.4774 5.45658 15.4289 5.45658C15.9089 5.45658 16.1616 4.92058 15.8247 4.60058C14.6121 3.44058 12.4395 1.35258 11.1932 0.16858C10.8479 -0.15942 10.25 0.0645804 10.25 0.52058V3.31258C10.25 4.48058 11.2942 5.44858 12.5658 5.44858Z" fill="#338C90"/>
</svg>
