<svg width="14" height="16" viewBox="0 0 14 16" fill="none" xmlns="http://www.w3.org/2000/svg">
<path d="M7.18421 0C8.03814 0 8.74123 0.667505 8.83216 1.5254L8.83194 1.52338L10.1316 1.52381C11.0472 1.52381 11.7895 2.29132 11.7895 3.2381V6.85714H10.6842V3.2381C10.6842 2.92251 10.4368 2.66667 10.1316 2.66667L8.56284 2.66682C8.26538 3.12617 7.75895 3.42857 7.18421 3.42857H4.60526C4.0305 3.42857 3.52405 3.12614 3.22663 2.66679L1.65789 2.66667C1.35269 2.66667 1.10526 2.92251 1.10526 3.2381V13.5238C1.10526 13.8394 1.35269 14.0952 1.65789 14.0952H5.18066C5.2304 14.5074 5.35972 14.894 5.55218 15.2381H1.65789C0.742265 15.2381 0 14.4706 0 13.5238V3.2381C0 2.29132 0.742265 1.52381 1.65789 1.52381L2.95753 1.52338C3.04935 0.666453 3.75204 0 4.60526 0H7.18421ZM8.83827 1.59691L8.84211 1.71429C8.84211 1.67483 8.84085 1.6357 8.83827 1.59691ZM7.18421 1.14286H4.60526C4.30006 1.14286 4.05263 1.3987 4.05263 1.71429C4.05263 2.02987 4.30006 2.28571 4.60526 2.28571H7.18421C7.48941 2.28571 7.73684 2.02987 7.73684 1.71429C7.73684 1.3987 7.48941 1.14286 7.18421 1.14286ZM8.10526 7.61905C6.88439 7.61905 5.89474 8.64236 5.89474 9.90476V13.7143C5.89474 14.1382 6.00629 14.5351 6.20082 14.8754L8.77505 12.2136C9.42252 11.5441 10.4722 11.5442 11.1197 12.2136L13.6939 14.8754C13.8884 14.5351 14 14.1382 14 13.7143V9.90476C14 8.64236 13.0103 7.61905 11.7895 7.61905H8.10526ZM8.10526 16C7.69528 16 7.31146 15.8846 6.98232 15.6835L9.55662 13.0217C9.77244 12.7986 10.1223 12.7986 10.3381 13.0217L12.9124 15.6835C12.5833 15.8846 12.1995 16 11.7895 16H8.10526ZM11.7895 10.6667C11.3825 10.6667 11.0526 10.3256 11.0526 9.90476C11.0526 9.48396 11.3825 9.14286 11.7895 9.14286C12.1964 9.14286 12.5263 9.48396 12.5263 9.90476C12.5263 10.3256 12.1964 10.6667 11.7895 10.6667Z" fill="#C6C6C6"/>
</svg>
